<?xml version="1.0" encoding="UTF-8"?>
<svg width="307px" height="28px" viewBox="0 0 307 28" version="1.1" xmlns="http://www.w3.org/2000/svg" xmlns:xlink="http://www.w3.org/1999/xlink">
    <!-- Generator: Sketch 49.3 (51167) - http://www.bohemiancoding.com/sketch -->
    <title>logo</title>
    <desc>Created with Sketch.</desc>
    <defs>
        <polygon id="path-1" points="0.175146873 0.438390827 19.2436751 0.438390827 19.2436751 14.8857487 0.175146873 14.8857487"></polygon>
        <polygon id="path-3" points="0.02520589 0.610901486 23.8158873 0.610901486 23.8158873 27.3438246 0.02520589 27.3438246"></polygon>
        <polygon id="path-5" points="0.338780786 0.610442506 18.5190398 0.610442506 18.5190398 16.5701373 0.338780786 16.5701373"></polygon>
        <polygon id="path-7" points="0.349476258 0.610442506 18.5270104 0.610442506 18.5270104 16.5701373 0.349476258 16.5701373"></polygon>
        <polygon id="path-9" points="0 27.5387597 306.727069 27.5387597 306.727069 0.610442506 0 0.610442506"></polygon>
    </defs>
    <g id="Symbols" stroke="none" stroke-width="1" fill="none" fill-rule="evenodd">
        <g id="nav" transform="translate(0.000000, -11.000000)">
            <g id="logo">
                <g transform="translate(0.000000, 11.000000)">
                    <polygon id="Fill-1" fill="#E5E6E7" points="129.794052 16.3907419 129.791327 21.5817981 132.571468 21.5817981 132.602805 21.5817981 141.266819 16.3933647"></polygon>
                    <polygon id="Fill-2" fill="#E5E6E7" points="101.472305 16.8223136 101.472305 21.02722 105.724607 16.8223136"></polygon>
                    <polygon id="Fill-3" fill="#E5E6E7" points="158.67026 16.5354516 158.678435 22.4444826 163.013166 19.2145795 161.555994 16.5354516"></polygon>
                    <g id="Group-10" transform="translate(0.000000, 0.045242)">
                        <g id="Group-6" transform="translate(287.483394, 12.458010)">
                            <mask id="mask-2" fill="white">
                                <use xlink:href="#path-1"></use>
                            </mask>
                            <g id="Clip-5"></g>
                            <path d="M18.8935857,4.16792571 C18.6388019,3.38175969 18.2518574,2.72804199 17.7647706,2.18316796 C17.0930677,1.42519638 16.2367487,0.875076873 15.3068557,0.438390827 L12.9000339,2.18316796 L10.2363844,4.11219251 C10.2874774,4.13251873 10.3440204,4.14956654 10.3951134,4.16792571 C12.1363635,4.78951486 13.4218639,5.54748643 13.4218639,7.05425 C13.4218639,8.84820349 11.2963943,9.71042894 9.39164647,9.71042894 C7.8459123,9.71042894 6.30494681,9.1399832 5.13866347,8.15186628 L0.175146873,11.6879742 C2.67325494,13.9146796 5.6584498,14.8857487 9.05579502,14.8857487 C14.5070797,14.8857487 19.2451057,12.1889173 19.2451057,6.51199871 C19.2451057,5.61305491 19.1177138,4.84262532 18.8935857,4.16792571" id="Fill-4" fill="#353334" mask="url(#mask-2)"></path>
                        </g>
                        <g id="Group-9">
                            <mask id="mask-4" fill="white">
                                <use xlink:href="#path-3"></use>
                            </mask>
                            <g id="Clip-8"></g>
                            <path d="M13.5134907,22.1691605 C9.29525097,22.1691605 6.04641613,18.719603 6.04641613,13.9744125 C6.04641613,9.23381169 9.29525097,5.78556557 13.7028755,5.78556557 C15.8658134,5.78556557 17.5437082,6.54025872 18.7024978,7.86736466 L23.1816526,4.35027164 C20.9430971,1.58197061 17.2092192,0.610901486 14.2614925,0.610901486 C6.01167288,0.610901486 0.000408744161,5.81900549 0.000408744161,13.9744125 C0.000408744161,22.1304751 6.01167288,27.3438246 14.2614925,27.3438246 C17.8843283,27.3438246 21.6127563,25.9419706 23.8158873,22.9212309 L18.9654566,19.4362665 C17.7678362,21.1620287 15.8658134,22.1691605 13.5134907,22.1691605" id="Fill-7" fill="#353334" mask="url(#mask-4)"></path>
                        </g>
                    </g>
                    <polygon id="Fill-11" fill="#353334" points="73.9376632 10.8237817 68.3365057 1.30192765 61.0962842 1.30192765 71.0253611 15.8915691 71.0253611 26.7405291 76.8499654 26.7405291 76.8499654 15.8915691 86.7790423 1.30192765 79.8699035 1.30192765"></polygon>
                    <g id="Group-41" transform="translate(0.000000, 0.045242)">
                        <path d="M53.6999904,16.8884722 L53.6999904,1.25629199 L47.8767486,1.25629199 L47.8767486,16.6701292 C47.8767486,19.7957784 45.6347869,22.1687016 42.5766993,22.1687016 C39.4790998,22.1687016 37.2350944,19.7957784 37.2350944,16.6701292 L37.2350944,1.25629199 L31.41594,1.25629199 L31.41594,16.8884722 C31.41594,22.8879877 35.2206669,27.3433656 42.5766993,27.3433656 C42.8709951,27.3433656 43.1618847,27.332219 43.4466431,27.3184496 L53.1522733,20.5865342 C53.5153743,19.4482655 53.6999904,18.2037758 53.6999904,16.8884722" id="Fill-12" fill="#353334"></path>
                        <polygon id="Fill-14" fill="#353334" points="129.799025 21.5365559 129.79085 16.3481224 141.266342 16.3481224 141.266342 11.1747697 129.805156 11.1747697 129.805156 6.43023482 141.939408 6.43023482 141.939408 1.25622642 123.983276 1.25622642 123.983276 26.6954835 123.990089 26.6954835 132.605053 21.5365559"></polygon>
                        <path d="M105.37513,12.0348314 L101.492742,12.0348314 L101.492742,6.00187597 L104.479981,6.00187597 C106.721942,6.00187597 109.483009,6.35987984 109.483009,8.98130749 C109.483009,11.3522636 107.430432,12.0348314 105.37513,12.0348314 M105.488898,1.2566854 L95.6722253,1.2566854 L95.6722253,26.6952868 L101.472305,20.9823056 L101.472305,16.794447 L101.472305,16.7793663 L105.749813,16.7793663 C111.312821,16.7793663 115.530379,14.9460717 115.530379,8.98130749 C115.530379,2.94441796 110.976288,1.2566854 105.488898,1.2566854" id="Fill-16" fill="#353334"></path>
                        <path d="M162.135661,11.7838353 L158.700166,11.7838353 L158.700166,6.00135142 L162.508981,6.00135142 C164.637175,6.00135142 167.026285,6.3934509 167.026285,8.94472028 C167.026285,11.7123656 164.265218,11.7838353 162.135661,11.7838353 Z M167.361455,15.9513676 C171.09397,15.303551 173.072292,12.5398398 173.072292,8.98078295 C173.072292,3.0520814 168.51752,1.25616085 163.109153,1.25616085 L152.878287,1.25616085 L152.878287,26.6960736 L158.678367,22.3934703 L158.66951,16.4903404 L161.555925,16.4903404 L163.01378,19.1760252 L167.361455,15.9513676 Z" id="Fill-18" fill="#353334"></path>
                        <g id="Group-22" transform="translate(181.209912, 0.000000)">
                            <mask id="mask-6" fill="white">
                                <use xlink:href="#path-5"></use>
                            </mask>
                            <g id="Clip-21"></g>
                            <path d="M18.5190398,3.27022771 C16.2784406,1.36415213 13.4042879,0.610114664 10.4156868,0.610114664 C5.22667972,0.610114664 0.338780786,3.44857397 0.338780786,8.87370963 C0.338780786,11.9613291 1.9832948,13.588083 4.06857126,14.6411127 C5.81799627,15.5164519 7.87329816,15.9918233 9.54506178,16.5701373 L12.2066675,14.6411127 L14.6162143,12.8963356 C11.0608214,11.2289293 6.38546941,11.2800727 6.38546941,8.4062064 C6.38546941,6.50406492 8.66353687,5.78543443 10.3039634,5.78543443 C11.3837293,5.78543443 12.718279,6.09754037 13.7094835,6.75191376 L18.4386535,3.3567781 L18.5190398,3.27022771 Z" id="Fill-20" fill="#353334" mask="url(#mask-6)"></path>
                        </g>
                        <g id="Group-25" transform="translate(288.164634, 0.000000)">
                            <mask id="mask-8" fill="white">
                                <use xlink:href="#path-7"></use>
                            </mask>
                            <g id="Clip-24"></g>
                            <path d="M18.5270104,3.27022771 C16.2891361,1.36415213 13.4149834,0.610114664 10.4243386,0.610114664 C5.23805643,0.610114664 0.349476258,3.44857397 0.349476258,8.87370963 C0.349476258,11.9613291 1.99194655,13.588083 4.07790425,14.6411127 C5.82869174,15.5164519 7.88467487,15.9918233 9.55507601,16.5701373 L12.2187255,14.6411127 L14.6248661,12.8963356 C11.0708356,11.2289293 6.39548365,11.2800727 6.39548365,8.4062064 C6.39548365,6.50406492 8.67423235,5.78543443 10.3146589,5.78543443 C11.3937435,5.78543443 12.7282932,6.09754037 13.7174541,6.75191376 L18.4473052,3.3567781 L18.5270104,3.27022771 Z" id="Fill-23" fill="#DDB407" mask="url(#mask-8)"></path>
                        </g>
                        <polygon id="Fill-26" fill="#DDB407" points="123.989816 26.6955491 142.586313 26.6955491 142.586313 21.5372771 132.604781 21.5372771"></polygon>
                        <polygon id="Fill-28" fill="#DDB407" points="95.6724978 26.6955491 95.6724978 26.6955491 101.472577 26.6955491 101.472577 20.9812565"></polygon>
                        <polygon id="Fill-30" fill="#DDB407" points="163.014461 19.1756974 167.101221 26.6964015 174.071672 26.6944344 167.360093 15.9602193"></polygon>
                        <polygon id="Fill-32" fill="#DDB407" points="152.878014 26.6955491 158.678094 26.6955491 158.678094 22.3929457"></polygon>
                        <path d="M199.412924,16.625936 C199.15814,15.83977 198.768471,15.1860523 198.284109,14.6411783 C197.611725,13.8832067 196.755406,13.3330872 195.825513,12.8964012 L193.417328,14.6411783 L190.755041,16.5702028 C190.805453,16.5905291 190.862677,16.6075769 190.914452,16.625936 C192.655702,17.2475252 193.941883,18.0054968 193.941883,19.5122603 C193.941883,21.3062138 191.813689,22.1684393 189.909622,22.1684393 C188.366613,22.1684393 186.824966,21.5979935 185.655958,20.6098766 L180.693804,24.1459845 C183.192593,26.3726899 186.179151,27.343759 189.574452,27.343759 C195.025737,27.343759 199.763763,24.6469276 199.763763,18.970009 C199.763763,18.0710652 199.638415,17.3006357 199.412924,16.625936" id="Fill-34" fill="#DDB407"></path>
                        <polygon id="Fill-36" fill="#DDB407" points="208.470627 1.45424322 214.248225 1.45424322 214.248225 10.8659422 225.469615 10.8659422 225.469615 1.45424322 231.247895 1.45424322 231.247895 26.6954835 225.469615 26.6954835 225.469615 15.7862006 214.248225 15.7862006 214.248225 26.6954835 208.470627 26.6954835"></polygon>
                        <mask id="mask-10" fill="white">
                            <use xlink:href="#path-9"></use>
                        </mask>
                        <g id="Clip-39"></g>
                        <polygon id="Fill-38" fill="#DDB407" mask="url(#mask-10)" points="272.791085 26.5322836 279.305785 26.5322836 279.305785 1.4536531 272.791085 1.4536531"></polygon>
                        <path d="M262.572004,17.0837351 L262.572004,1.45352196 L256.747399,1.45352196 L256.747399,16.8686705 C256.747399,19.9930084 254.506119,22.3659315 251.449394,22.3659315 C248.347707,22.3659315 246.107108,19.9930084 246.107108,16.8686705 L246.107108,1.45352196 L240.287272,1.45352196 L240.287272,17.0837351 C240.287272,23.0839063 244.091318,27.5379729 251.449394,27.5379729 C251.74369,27.5379729 252.031854,27.5281376 252.318656,27.5150239 L262.02088,20.7837642 C262.387388,19.6454955 262.572004,18.4029729 262.572004,17.0837351" id="Fill-40" fill="#DDB407" mask="url(#mask-10)"></path>
                    </g>
                </g>
            </g>
        </g>
    </g>
</svg>